<svg viewBox="0 0 395.52 203.03726464735243" height="203.03726464735243" width="395.52"><path d="M394.594 43.548C392.735 22.472 387.435 16.614 387.435 16.614 371.165-5.094 350.86-0.415 332.619 2.704 300.414 2.83 268.339 7.467 236.208 9.954 168.767 10.333 100.749 4.095 33.643 19.48 27.339 24.201-6.54 20.407 1.121 46.245 3.129 56.994 10.456 68.922 10.232 78.785 11.236 80.514 12.631 76.551 13.226 79.038 15.309 85.74 18.711 82.579 21.501 86.541 17.614 97.121 20.403 105.93 23.062 115.161 18.377 117.564 12.371 116.426 9.675 124.392 9.396 130.167 7.89 129.071 6.235 128.818 5.026 128.649 2.59 129.282 2.999 131.094 4.394 137.29-1.594 140.873 2.162 146.943-0.422 153.518 3.948 159.208 3.353 166.332 3.278 167.765 3.687 168.987 4.338 169.324 7.22 171.137 3.018 174.677 3.464 178.513 33.029 204.731 65.104 186.606 95.394 198.661 103.259 190.231 97.346 201.654 100.489 199.883 102.943 197.818 104.728 206.375 107.499 201.527 107.927 200.136 107.276 196.849 108.8 197.481 109.6 197.818 110.307 197.734 110.418 195.795 110.586 192.886 109.117 194.699 108.726 193.182 112.947 185.51 111.906 203.761 115.866 203.003 115.68 200.769 114.528 197.565 116.889 197.987 119.232 194.783 119.306 192.128 121.389 199.335 121.463 200.895 121.835 201.991 122.43 202.75 128.938 194.91 135.409 205.532 142.233 201.991 146.417 198.113 150.433 204.098 154.672 202.623 156.16 201.443 157.666 199.335 159.098 202.876 176.632 203.635 195.319 200.474 211.943 203.003 256.364 198.282 303.835 204.941 350.674 198.703 361.719 196.301 373.192 192.886 383.958 190.147 383.958 190.147 392.679 182.644 392.679 148.924S394.538 119.418 394.817 92.569C395.096 65.719 396.398 64.623 394.538 43.548Z" opacity="1" fill="#ee3e38" data-fill-palette-color="tertiary"></path><g transform="matrix(1,0,0,1,55.76832,26.230666666666668)"><svg width="283.98335999999995" viewBox="2.4989795684814453 -35.45000076293945 67.801025390625 35.95000076293945" height="150.5759313140191" data-palette-color="#ffffff"><path d="M37.5 0.05L37.5 0.05Q33.05 0.05 33.05-0.95L33.05-0.95 32-21 25.9-0.7Q25.7-0.1 22.5-0.1 19.3-0.1 19.2-0.65L19.2-0.65 12.9-21.2 12.2-1.25Q12.15-0.5 10.3-0.23 8.45 0.05 7.23 0.05 6 0.05 4.85-0.1L4.85-0.1Q2.45-0.45 2.5-1.35L2.5-1.35 3.65-33.85Q3.65-35.05 9.75-35.05L9.75-35.05Q11.55-35.05 14.15-34.77 16.75-34.5 17.05-33.7L17.05-33.7 22.65-17.95 27.55-33.75Q28-35.05 34.45-35.05L34.45-35.05Q36.3-35.05 38.88-34.77 41.45-34.5 41.45-33.8L41.45-33.8 42.9-1Q42.9-0.45 40.95-0.2 39 0.05 37.5 0.05ZM49.15-12.2L49.15-12.2Q50.1-11.45 52.42-10.15 54.75-8.85 56.87-8.85 59-8.85 59-10.5L59-10.5Q59-11.25 58.4-11.83 57.8-12.4 56.2-13.15 54.6-13.9 53.8-14.33 53-14.75 51.67-15.73 50.35-16.7 49.65-17.75L49.65-17.75Q47.65-20.6 47.65-25 47.65-29.4 50.92-32.43 54.2-35.45 59.5-35.45L59.5-35.45Q63.1-35.45 66.15-34.68 69.2-33.9 69.3-32.65L69.3-32.65Q69.3-32.5 69.3-32.35L69.3-32.35Q69.3-30.6 68.2-27.93 67.1-25.25 66.65-24.95L66.65-24.95Q63.45-26.6 60.92-26.6 58.4-26.6 58.4-24.8L58.4-24.8Q58.4-23.7 60.25-22.85L60.25-22.85Q60.65-22.65 61.4-22.3 62.15-21.95 63.12-21.48 64.1-21 65.22-20.28 66.35-19.55 67.65-18.35L67.65-18.35Q70.3-15.85 70.3-11.75L70.3-11.75Q70.3-6.4 67.35-3 64.4 0.4 58.25 0.5L58.25 0.5Q55.25 0.5 52.82 0 50.4-0.5 48.6-1.95 46.8-3.4 46.8-5.45 46.8-7.5 47.55-9.53 48.3-11.55 49.15-12.2Z" opacity="1" transform="matrix(1,0,0,1,0,0)" fill="#ffffff" class="wordmark-text-0" data-fill-palette-color="quaternary" id="text-0"></path></svg></g></svg>